<svg width="20" height="20" viewBox="0 0 20 20" fill="none" xmlns="http://www.w3.org/2000/svg">
<path fill-rule="evenodd" clip-rule="evenodd" d="M3.12499 9.68746C3.12499 6.06311 6.06311 3.12499 9.68746 3.12499C13.3118 3.12499 16.2499 6.06311 16.2499 9.68746C16.2499 11.452 15.5535 13.0539 14.4205 14.2332C14.3851 14.2598 14.3511 14.2891 14.3189 14.3214C14.2868 14.3535 14.2575 14.3873 14.231 14.4226C13.0519 15.5544 11.4509 16.2499 9.68746 16.2499C6.06311 16.2499 3.12499 13.3118 3.12499 9.68746ZM14.9527 16.2809C13.5094 17.4349 11.679 18.1249 9.68746 18.1249C5.02758 18.1249 1.25 14.3473 1.25 9.68746C1.25 5.02758 5.02758 1.25 9.68746 1.25C14.3473 1.25 18.1249 5.02758 18.1249 9.68746C18.1249 11.6803 17.434 13.5117 16.2787 14.9554L19.7228 18.3995C20.089 18.7656 20.089 19.3592 19.7228 19.7253C19.3567 20.0914 18.7631 20.0914 18.397 19.7253L14.9527 16.2809Z" fill="#161C26"/>
</svg>
