<svg width="270" height="36" viewBox="0 0 270 36" fill="none" xmlns="http://www.w3.org/2000/svg">
<path d="M141.707 7.25017V22.4169H143.988V30.0002H139.963V26.2085H128.692V30.0002H124.667V22.4169H125.74L125.874 22.2694C126.359 21.7177 126.806 21.0446 127.216 20.2502C127.574 19.4918 127.909 18.5349 128.223 17.3793C128.517 16.2918 128.673 14.9883 128.691 13.4688L128.692 13.1814V7.25017H141.707ZM77.3181 7.25017V22.4169H79.5991V30.0002H75.5739V26.2085H64.3032V30.0002H60.278V22.4169H61.3514L61.4846 22.2694C61.9698 21.7177 62.4173 21.0446 62.8273 20.2502C63.1851 19.4918 63.5205 18.5349 63.8336 17.3793C64.1283 16.2918 64.2843 14.9883 64.3016 13.4688L64.3032 13.1814V7.25017H77.3181ZM198.581 6.96893C200.03 6.96893 201.376 7.23074 202.619 7.75435C203.863 8.27796 204.941 8.98663 205.853 9.88038C206.765 10.7741 207.481 11.8213 208 13.022C208.519 14.2227 208.778 15.5002 208.778 16.8543C208.778 18.2085 208.519 19.4859 208 20.6866C207.481 21.8873 206.765 22.9345 205.853 23.8283C204.941 24.722 203.863 25.4307 202.619 25.9543C201.376 26.478 200.03 26.7398 198.581 26.7398C197.132 26.7398 195.785 26.478 194.542 25.9543C193.299 25.4307 192.221 24.722 191.309 23.8283C190.396 22.9345 189.681 21.8873 189.162 20.6866C188.643 19.4859 188.383 18.2085 188.383 16.8543C188.383 15.5002 188.643 14.2227 189.162 13.022C189.681 11.8213 190.396 10.7741 191.309 9.88038C192.221 8.98663 193.299 8.27796 194.542 7.75435C195.785 7.23074 197.132 6.96893 198.581 6.96893ZM48.2834 6.92725C49.7325 6.92725 51.0787 7.18906 52.322 7.71267C53.5654 8.23628 54.6433 8.94497 55.5556 9.83872C56.468 10.7325 57.1836 11.7797 57.7024 12.9804C58.2212 14.1811 58.4806 15.4585 58.4806 16.8127C58.4806 18.1668 58.2212 19.4443 57.7024 20.645C57.1836 21.8457 56.468 22.8929 55.5556 23.7866C54.6433 24.6804 53.5654 25.3891 52.322 25.9127C51.0787 26.4363 49.7325 26.6981 48.2834 26.6981C46.8343 26.6981 45.4881 26.4363 44.2448 25.9127C43.0014 25.3891 41.9235 24.6804 41.0111 23.7866C40.0988 22.8929 39.3832 21.8457 38.8644 20.645C38.3456 19.4443 38.0861 18.1668 38.0861 16.8127C38.0861 15.4585 38.3456 14.1811 38.8644 12.9804C39.3832 11.7797 40.0988 10.7325 41.0111 9.83872C41.9235 8.94497 43.0014 8.23628 44.2448 7.71267C45.4881 7.18906 46.8343 6.92725 48.2834 6.92725ZM152.907 7.25017L157.335 16.2148L161.092 7.25017H165.788L158.811 22.0106L158.694 22.2518C158.419 22.8087 158.108 23.3241 157.764 23.7981C157.37 24.3398 156.919 24.8092 156.409 25.2064C155.899 25.6036 155.322 25.9151 154.678 26.1408C154.034 26.3665 153.309 26.4794 152.504 26.4794C152.165 26.4794 151.856 26.4613 151.579 26.4252C151.301 26.3891 151.064 26.3439 150.867 26.2898C150.635 26.2175 150.42 26.1453 150.223 26.0731V22.4169L150.302 22.4483C150.411 22.4887 150.536 22.5234 150.68 22.5522C151.002 22.6425 151.431 22.6877 151.968 22.6877C152.719 22.6877 153.332 22.4846 153.806 22.0783C154.28 21.6721 154.651 21.1981 154.92 20.6564L155.188 20.1148L148.211 7.25017H152.907ZM178.629 7.45851L178.842 7.46092C179.76 7.48188 180.602 7.63907 181.366 7.93247C182.189 8.24844 182.895 8.6908 183.486 9.25955C184.076 9.8283 184.532 10.5009 184.854 11.2772C185.176 12.0536 185.337 12.9023 185.337 13.8231C185.337 14.7439 185.176 15.5925 184.854 16.3689C184.532 17.1453 184.076 17.8179 183.486 18.3866C182.895 18.9554 182.189 19.3977 181.366 19.7137C180.602 20.0071 179.76 20.1643 178.842 20.1853L178.629 20.1877H174.738V26.4168H170.712V7.45851H178.629ZM221.361 7.33351L221.574 7.3359C222.42 7.35513 223.19 7.48975 223.883 7.73975C224.635 8.01058 225.27 8.37171 225.789 8.8231C226.307 9.27449 226.706 9.80711 226.983 10.421C227.26 11.0349 227.399 11.6759 227.399 12.3439C227.399 13.1022 227.265 13.7297 226.996 14.2262C226.728 14.7227 226.433 15.1245 226.111 15.4314C225.735 15.7925 225.315 16.0724 224.849 16.271C225.493 16.4696 226.075 16.7766 226.594 17.1918C227.023 17.5529 227.421 18.0269 227.788 18.6137C228.155 19.2005 228.338 19.9543 228.338 20.8752C228.338 21.6155 228.19 22.3151 227.895 22.9741C227.6 23.6332 227.175 24.2064 226.621 24.6939C226.066 25.1814 225.391 25.5696 224.594 25.8585C223.855 26.1268 223.027 26.2705 222.111 26.2896L221.898 26.2918H213.445V7.33351H221.361ZM243.563 7.33351L250.808 26.2918H246.515L244.905 21.9585H237.659L236.049 26.2918H231.756L239.001 7.33351H243.563ZM22.9539 7.25017V15.3752L30.1993 7.25017H35.0296L28.0526 15.1043L35.5663 26.2085H30.8702L25.3691 18.0835L22.9539 20.6564V26.2085H18.9287V7.25017H22.9539ZM198.581 10.7606C197.74 10.7606 196.953 10.9186 196.219 11.2345C195.486 11.5505 194.846 11.9839 194.301 12.5345C193.755 13.0852 193.326 13.7307 193.013 14.471C192.699 15.2113 192.543 16.0057 192.543 16.8543C192.543 17.7029 192.699 18.4974 193.013 19.2377C193.326 19.978 193.755 20.6234 194.301 21.1741C194.846 21.7248 195.486 22.1581 196.219 22.4741C196.953 22.7901 197.74 22.9481 198.581 22.9481C199.422 22.9481 200.209 22.7901 200.942 22.4741C201.676 22.1581 202.315 21.7248 202.861 21.1741C203.407 20.6234 203.836 19.978 204.149 19.2377C204.462 18.4974 204.619 17.7029 204.619 16.8543C204.619 16.0057 204.462 15.2113 204.149 14.471C203.836 13.7307 203.407 13.0852 202.861 12.5345C202.315 11.9839 201.676 11.5505 200.942 11.2345C200.209 10.9186 199.422 10.7606 198.581 10.7606ZM48.2834 10.7189C47.4426 10.7189 46.6554 10.8769 45.9219 11.1929C45.1884 11.5089 44.5489 11.9422 44.0032 12.4929C43.4576 13.0436 43.0282 13.6891 42.7152 14.4293C42.4021 15.1696 42.2456 15.9641 42.2456 16.8127C42.2456 17.6613 42.4021 18.4557 42.7152 19.196C43.0282 19.9363 43.4576 20.5818 44.0032 21.1325C44.5489 21.6832 45.1884 22.1165 45.9219 22.4325C46.6554 22.7484 47.4426 22.9064 48.2834 22.9064C49.1242 22.9064 49.9114 22.7484 50.6449 22.4325C51.3784 22.1165 52.0179 21.6832 52.5636 21.1325C53.1092 20.5818 53.5386 19.9363 53.8516 19.196C54.1647 18.4557 54.3212 17.6613 54.3212 16.8127C54.3212 15.9641 54.1647 15.1696 53.8516 14.4293C53.5386 13.6891 53.1092 13.0436 52.5636 12.4929C52.0179 11.9422 51.3784 11.5089 50.6449 11.1929C49.9114 10.8769 49.1242 10.7189 48.2834 10.7189ZM221.629 18.1668H217.47V22.771H221.629C222.434 22.771 223.06 22.5588 223.508 22.1345C223.955 21.7102 224.179 21.155 224.179 20.4689C224.179 19.7828 223.955 19.2276 223.508 18.8033C223.06 18.379 222.434 18.1668 221.629 18.1668ZM137.682 11.0418H132.717V13.2085L132.716 13.4959C132.701 15.0148 132.562 16.3138 132.301 17.3929C132.024 18.5394 131.716 19.4918 131.376 20.2502C131.015 21.0446 130.609 21.7177 130.158 22.2694L130.034 22.4169H137.682V11.0418ZM73.2929 11.0418H68.3284V13.2085L68.327 13.4959C68.3117 15.0148 68.1735 16.3138 67.9125 17.3929C67.6352 18.5394 67.3266 19.4918 66.9867 20.2502C66.6259 21.0446 66.2201 21.7177 65.7691 22.2694L65.645 22.4169H73.2929V11.0418ZM241.336 12.0731H241.228L239.001 18.3023H243.563L241.336 12.0731ZM178.494 11.2502H174.738V16.396H178.494C179.299 16.396 179.948 16.1568 180.44 15.6783C180.932 15.1998 181.178 14.5814 181.178 13.8231C181.178 13.0648 180.932 12.4464 180.44 11.9679C179.948 11.4894 179.299 11.2502 178.494 11.2502ZM221.093 10.8543H217.47V14.646H221.093C221.772 14.646 222.3 14.4655 222.676 14.1043C223.051 13.7432 223.239 13.2918 223.239 12.7502C223.239 12.2085 223.051 11.7571 222.676 11.396C222.3 11.0349 221.772 10.8543 221.093 10.8543Z" fill="#161C26"/>
<path d="M11.9725 4.89713V0H0V36H11.9725V31.1029H4.79175V4.89713H11.9725Z" fill="#0087CB"/>
<path d="M270 36V0H258.028V4.89713H265.208V31.1029H258.028V36H270Z" fill="#0087CB"/>
<path d="M91.5724 36L104.037 0H99.1615L86.6973 36H91.5724Z" fill="#0087CB"/>
<path d="M106.475 36L118.899 0H113.984L101.56 36H106.475Z" fill="#0087CB"/>
</svg>
